<svg width="24" height="25" viewBox="0 0 24 25" fill="none" xmlns="http://www.w3.org/2000/svg">
<path d="M18.75 2.5H5.25C4.65326 2.5 4.08097 2.73705 3.65901 3.15901C3.23705 3.58097 3 4.15326 3 4.75V19.75C2.99998 20.0663 3.06678 20.3791 3.19603 20.6678C3.32528 20.9565 3.51405 21.2146 3.75 21.4253V22.2813C3.75 22.6045 3.8784 22.9145 4.10696 23.143C4.33552 23.3716 4.64552 23.5 4.96875 23.5H6.28125C6.60448 23.5 6.91448 23.3716 7.14304 23.143C7.3716 22.9145 7.5 22.6045 7.5 22.2813V22H16.5V22.2813C16.5 22.6045 16.6284 22.9145 16.857 23.143C17.0855 23.3716 17.3955 23.5 17.7188 23.5H19.0313C19.3545 23.5 19.6645 23.3716 19.893 23.143C20.1216 22.9145 20.25 22.6045 20.25 22.2813V21.4253C20.4859 21.2146 20.6747 20.9565 20.804 20.6678C20.9332 20.3791 21 20.0663 21 19.75V4.75C21 4.15326 20.7629 3.58097 20.341 3.15901C19.919 2.73705 19.3467 2.5 18.75 2.5ZM6.91266 19.7416C6.60394 19.7752 6.29241 19.7121 6.02106 19.5611C5.7497 19.4101 5.53189 19.1787 5.39768 18.8986C5.26348 18.6186 5.21949 18.3038 5.2718 17.9977C5.32411 17.6916 5.47013 17.4093 5.68971 17.1897C5.90929 16.9701 6.19161 16.8241 6.49771 16.7718C6.8038 16.7195 7.11859 16.7635 7.39863 16.8977C7.67867 17.0319 7.91015 17.2497 8.06113 17.5211C8.21212 17.7924 8.27516 18.1039 8.24156 18.4127C8.20459 18.7524 8.05269 19.0694 7.81103 19.311C7.56936 19.5527 7.25242 19.7046 6.91266 19.7416ZM11.0625 14.5H5.25C5.05109 14.5 4.86032 14.421 4.71967 14.2803C4.57902 14.1397 4.5 13.9489 4.5 13.75V7.75C4.5 7.55109 4.57902 7.36032 4.71967 7.21967C4.86032 7.07902 5.05109 7 5.25 7H11.0625C11.1122 7 11.1599 7.01975 11.1951 7.05492C11.2302 7.09008 11.25 7.13777 11.25 7.1875V14.3125C11.25 14.3622 11.2302 14.4099 11.1951 14.4451C11.1599 14.4802 11.1122 14.5 11.0625 14.5ZM12 5.5H5.27156C4.86844 5.5 4.52156 5.19063 4.50094 4.78797C4.49579 4.68641 4.51135 4.58486 4.54667 4.4895C4.58199 4.39414 4.63633 4.30696 4.7064 4.23326C4.77646 4.15956 4.86078 4.10087 4.95423 4.06077C5.04768 4.02067 5.14831 4 5.25 4H18.7284C19.1316 4 19.4784 4.30938 19.4991 4.71203C19.5042 4.81359 19.4887 4.91514 19.4533 5.0105C19.418 5.10586 19.3637 5.19304 19.2936 5.26674C19.2235 5.34044 19.1392 5.39913 19.0458 5.43923C18.9523 5.47933 18.8517 5.5 18.75 5.5H12ZM12.9375 7H18.75C18.9489 7 19.1397 7.07902 19.2803 7.21967C19.421 7.36032 19.5 7.55109 19.5 7.75V13.75C19.5 13.9489 19.421 14.1397 19.2803 14.2803C19.1397 14.421 18.9489 14.5 18.75 14.5H12.9375C12.8878 14.5 12.8401 14.4802 12.8049 14.4451C12.7698 14.4099 12.75 14.3622 12.75 14.3125V7.1875C12.75 7.13777 12.7698 7.09008 12.8049 7.05492C12.8401 7.01975 12.8878 7 12.9375 7ZM15.7584 18.4127C15.7248 18.1039 15.7879 17.7924 15.9389 17.5211C16.0899 17.2497 16.3213 17.0319 16.6014 16.8977C16.8814 16.7635 17.1962 16.7195 17.5023 16.7718C17.8084 16.8241 18.0907 16.9701 18.3103 17.1897C18.5299 17.4093 18.6759 17.6916 18.7282 17.9977C18.7805 18.3038 18.7365 18.6186 18.6023 18.8986C18.4681 19.1787 18.2503 19.4101 17.9789 19.5611C17.7076 19.7121 17.3961 19.7752 17.0873 19.7416C16.7476 19.7046 16.4306 19.5527 16.189 19.311C15.9473 19.0694 15.7954 18.7524 15.7584 18.4127Z" fill="#666666"/>
</svg>
