<svg width="24" height="25" viewBox="0 0 24 25" fill="none" xmlns="http://www.w3.org/2000/svg">
<path d="M12.0001 3.24609C6.62403 3.24609 2.25012 7.62 2.25012 12.9961C2.25012 18.3722 6.62403 22.7461 12.0001 22.7461C17.3762 22.7461 21.7501 18.3722 21.7501 12.9961C21.7501 7.62 17.3762 3.24609 12.0001 3.24609ZM7.87512 17.4023C7.65262 17.4023 7.43511 17.3364 7.25011 17.2127C7.0651 17.0891 6.92091 16.9134 6.83576 16.7079C6.75061 16.5023 6.72833 16.2761 6.77174 16.0579C6.81515 15.8396 6.92229 15.6392 7.07963 15.4819C7.23696 15.3245 7.43742 15.2174 7.65565 15.174C7.87387 15.1306 8.10007 15.1528 8.30564 15.238C8.51121 15.3231 8.68691 15.4673 8.81053 15.6523C8.93414 15.8373 9.00012 16.0548 9.00012 16.2773C9.00012 16.5757 8.8816 16.8619 8.67062 17.0728C8.45964 17.2838 8.17349 17.4023 7.87512 17.4023ZM7.87512 14.0742C7.65262 14.0742 7.43511 14.0082 7.25011 13.8846C7.0651 13.761 6.92091 13.5853 6.83576 13.3797C6.75061 13.1742 6.72833 12.948 6.77174 12.7297C6.81515 12.5115 6.92229 12.3111 7.07963 12.1537C7.23696 11.9964 7.43742 11.8892 7.65565 11.8458C7.87387 11.8024 8.10007 11.8247 8.30564 11.9099C8.51121 11.995 8.68691 12.1392 8.81053 12.3242C8.93414 12.5092 9.00012 12.7267 9.00012 12.9492C9.00012 13.2476 8.8816 13.5337 8.67062 13.7447C8.45964 13.9557 8.17349 14.0742 7.87512 14.0742ZM7.87512 10.6523C7.65262 10.6523 7.43511 10.5864 7.25011 10.4627C7.0651 10.3391 6.92091 10.1634 6.83576 9.95786C6.75061 9.7523 6.72833 9.5261 6.77174 9.30787C6.81515 9.08964 6.92229 8.88918 7.07963 8.73185C7.23696 8.57451 7.43742 8.46737 7.65565 8.42396C7.87387 8.38055 8.10007 8.40283 8.30564 8.48798C8.51121 8.57313 8.68691 8.71732 8.81053 8.90233C8.93414 9.08733 9.00012 9.30484 9.00012 9.52734C9.00012 9.82571 8.8816 10.1119 8.67062 10.3228C8.45964 10.5338 8.17349 10.6523 7.87512 10.6523ZM16.5001 16.9805H10.5001C10.3012 16.9805 10.1104 16.9015 9.96979 16.7608C9.82914 16.6201 9.75012 16.4294 9.75012 16.2305C9.75012 16.0316 9.82914 15.8408 9.96979 15.7001C10.1104 15.5595 10.3012 15.4805 10.5001 15.4805H16.5001C16.699 15.4805 16.8898 15.5595 17.0305 15.7001C17.1711 15.8408 17.2501 16.0316 17.2501 16.2305C17.2501 16.4294 17.1711 16.6201 17.0305 16.7608C16.8898 16.9015 16.699 16.9805 16.5001 16.9805ZM16.5001 13.6523H10.5001C10.3012 13.6523 10.1104 13.5733 9.96979 13.4327C9.82914 13.292 9.75012 13.1013 9.75012 12.9023C9.75012 12.7034 9.82914 12.5127 9.96979 12.372C10.1104 12.2314 10.3012 12.1523 10.5001 12.1523H16.5001C16.699 12.1523 16.8898 12.2314 17.0305 12.372C17.1711 12.5127 17.2501 12.7034 17.2501 12.9023C17.2501 13.1013 17.1711 13.292 17.0305 13.4327C16.8898 13.5733 16.699 13.6523 16.5001 13.6523ZM16.5001 10.2773H10.5001C10.3012 10.2773 10.1104 10.1983 9.96979 10.0577C9.82914 9.91702 9.75012 9.72626 9.75012 9.52734C9.75012 9.32843 9.82914 9.13767 9.96979 8.99701C10.1104 8.85636 10.3012 8.77734 10.5001 8.77734H16.5001C16.699 8.77734 16.8898 8.85636 17.0305 8.99701C17.1711 9.13767 17.2501 9.32843 17.2501 9.52734C17.2501 9.72626 17.1711 9.91702 17.0305 10.0577C16.8898 10.1983 16.699 10.2773 16.5001 10.2773Z" fill="#666666"/>
</svg>
