<svg width="24" height="25" viewBox="0 0 24 25" fill="none" xmlns="http://www.w3.org/2000/svg">
<path d="M12.0001 3.25C6.62397 3.25 2.25006 7.62391 2.25006 13C2.25006 18.3761 6.62397 22.75 12.0001 22.75C17.3762 22.75 21.7501 18.3761 21.7501 13C21.7501 7.62391 17.3762 3.25 12.0001 3.25ZM15.5302 15.4698C15.6028 15.5388 15.6608 15.6216 15.7009 15.7133C15.741 15.805 15.7623 15.9039 15.7636 16.004C15.7649 16.1041 15.7461 16.2034 15.7084 16.2962C15.6707 16.3889 15.6148 16.4731 15.544 16.5439C15.4732 16.6147 15.3889 16.6706 15.2962 16.7083C15.2035 16.746 15.1041 16.7648 15.004 16.7635C14.9039 16.7622 14.8051 16.7409 14.7134 16.7008C14.6216 16.6608 14.5389 16.6027 14.4699 16.5302L12.0001 14.0608L9.53022 16.5302C9.38842 16.6649 9.19961 16.7389 9.00404 16.7364C8.80847 16.7339 8.62161 16.6551 8.48331 16.5168C8.34501 16.3785 8.2662 16.1916 8.2637 15.996C8.2612 15.8005 8.33519 15.6116 8.46991 15.4698L10.9393 13L8.46991 10.5302C8.33519 10.3884 8.2612 10.1995 8.2637 10.004C8.2662 9.80841 8.34501 9.62155 8.48331 9.48325C8.62161 9.34495 8.80847 9.26614 9.00404 9.26364C9.19961 9.26114 9.38842 9.33513 9.53022 9.46984L12.0001 11.9392L14.4699 9.46984C14.6117 9.33513 14.8005 9.26114 14.9961 9.26364C15.1917 9.26614 15.3785 9.34495 15.5168 9.48325C15.6551 9.62155 15.7339 9.80841 15.7364 10.004C15.7389 10.1995 15.6649 10.3884 15.5302 10.5302L13.0608 13L15.5302 15.4698Z" fill="#666666"/>
</svg>
