<svg width="24" height="25" viewBox="0 0 24 25" fill="none" xmlns="http://www.w3.org/2000/svg">
<path d="M10.5 16.3281H16.5M10.5 9.625H16.5H10.5ZM10.5 13H16.5H10.5Z" stroke="#666666" stroke-width="1.5" stroke-linecap="round" stroke-linejoin="round"/>
<path d="M21 13.0938C21 8.125 16.9688 4.09375 12 4.09375C7.03125 4.09375 3 8.125 3 13.0938C3 18.0625 7.03125 22.0938 12 22.0938C16.9688 22.0938 21 18.0625 21 13.0938Z" stroke="#666666" stroke-width="1.5" stroke-miterlimit="10"/>
<path d="M7.87506 9.99609C8.08217 9.99609 8.25006 9.8282 8.25006 9.62109C8.25006 9.41399 8.08217 9.24609 7.87506 9.24609C7.66795 9.24609 7.50006 9.41399 7.50006 9.62109C7.50006 9.8282 7.66795 9.99609 7.87506 9.99609Z" stroke="#666666" stroke-width="1.5" stroke-linecap="round" stroke-linejoin="round"/>
<path d="M7.87506 13.4219C8.08217 13.4219 8.25006 13.254 8.25006 13.0469C8.25006 12.8398 8.08217 12.6719 7.87506 12.6719C7.66795 12.6719 7.50006 12.8398 7.50006 13.0469C7.50006 13.254 7.66795 13.4219 7.87506 13.4219Z" stroke="#666666" stroke-width="1.5" stroke-linecap="round" stroke-linejoin="round"/>
<path d="M7.87506 16.7461C8.08217 16.7461 8.25006 16.5782 8.25006 16.3711C8.25006 16.164 8.08217 15.9961 7.87506 15.9961C7.66795 15.9961 7.50006 16.164 7.50006 16.3711C7.50006 16.5782 7.66795 16.7461 7.87506 16.7461Z" stroke="#666666" stroke-width="1.5" stroke-linecap="round" stroke-linejoin="round"/>
</svg>
