<svg width="24" height="24" viewBox="0 0 24 24" fill="none" xmlns="http://www.w3.org/2000/svg">
<path d="M5.24994 5.24609L6.18744 20.2461C6.23197 21.1128 6.86244 21.7461 7.68744 21.7461H16.3124C17.1407 21.7461 17.7595 21.1128 17.8124 20.2461L18.7499 5.24609" stroke="#666666" stroke-width="1.5" stroke-linecap="round" stroke-linejoin="round"/>
<path d="M3.75006 5.24609H20.2501H3.75006Z" fill="#666666"/>
<path d="M3.75006 5.24609H20.2501" stroke="#666666" stroke-width="1.5" stroke-miterlimit="10" stroke-linecap="round"/>
<path d="M15.375 8.25001L15 18.75M9 5.25001V3.37501C8.99957 3.22715 9.02837 3.08066 9.08475 2.94397C9.14114 2.80729 9.22399 2.6831 9.32854 2.57854C9.43309 2.47399 9.55728 2.39114 9.69397 2.33476C9.83066 2.27838 9.97714 2.24957 10.125 2.25H13.875C14.0229 2.24957 14.1693 2.27838 14.306 2.33476C14.4427 2.39114 14.5669 2.47399 14.6715 2.57854C14.776 2.6831 14.8589 2.80729 14.9152 2.94397C14.9716 3.08066 15.0004 3.22715 15 3.37501V5.25001H9ZM12 8.25001V18.75V8.25001ZM8.625 8.25001L9 18.75L8.625 8.25001Z" stroke="#666666" stroke-width="1.5" stroke-linecap="round" stroke-linejoin="round"/>
</svg>
