<svg width="24" height="24" viewBox="0 0 24 24" fill="none" xmlns="http://www.w3.org/2000/svg">
<path d="M12 20.9961C11.6989 20.9957 11.4049 20.9047 11.1562 20.735C7.47232 18.2342 5.87716 16.5195 4.99732 15.4475C3.12232 13.1623 2.22466 10.8163 2.24997 8.27563C2.2795 5.36422 4.61528 2.99609 7.45685 2.99609C9.5231 2.99609 10.9542 4.16 11.7876 5.12938C11.814 5.15977 11.8467 5.18415 11.8833 5.20085C11.9199 5.21756 11.9597 5.2262 12 5.2262C12.0402 5.2262 12.08 5.21756 12.1167 5.20085C12.1533 5.18415 12.1859 5.15977 12.2123 5.12938C13.0458 4.15906 14.4768 2.99609 16.5431 2.99609C19.3847 2.99609 21.7204 5.36422 21.75 8.27609C21.7753 10.8172 20.8767 13.1633 19.0026 15.448C18.1228 16.52 16.5276 18.2347 12.8437 20.7355C12.595 20.905 12.301 20.9959 12 20.9961Z" fill="#666666"/>
</svg>
