<svg width="24" height="24" viewBox="0 0 24 24" fill="none" xmlns="http://www.w3.org/2000/svg">
<g clip-path="url(#clip0_14126_3712)">
<path d="M18.4687 22.4968C18.3109 22.4974 18.1568 22.4482 18.0286 22.3562L12 17.9856L5.97139 22.3562C5.84259 22.4496 5.68742 22.4996 5.52832 22.4991C5.36921 22.4985 5.21441 22.4473 5.08629 22.353C4.95818 22.2586 4.86339 22.126 4.81563 21.9742C4.76787 21.8224 4.76961 21.6594 4.82061 21.5087L7.17186 14.5445L1.07811 10.3656C0.946113 10.2751 0.846491 10.1449 0.793797 9.99382C0.741103 9.84275 0.7381 9.67879 0.785225 9.5259C0.83235 9.373 0.927135 9.23918 1.05573 9.14399C1.18432 9.0488 1.33999 8.99723 1.49998 8.99681H9.0178L11.2865 2.01478C11.3354 1.86404 11.4308 1.73265 11.559 1.63947C11.6871 1.54629 11.8415 1.49609 12 1.49609C12.1585 1.49609 12.3128 1.54629 12.441 1.63947C12.5692 1.73265 12.6645 1.86404 12.7134 2.01478L14.9822 8.99915H22.5C22.6602 8.99907 22.8162 9.05029 22.9452 9.1453C23.0741 9.2403 23.1693 9.37411 23.2167 9.52712C23.2642 9.68014 23.2613 9.84431 23.2087 9.99561C23.1561 10.1469 23.0564 10.2774 22.9242 10.3679L16.8281 14.5445L19.178 21.5068C19.216 21.6195 19.2267 21.7397 19.2092 21.8574C19.1917 21.975 19.1464 22.0869 19.0771 22.1836C19.0078 22.2803 18.9165 22.3592 18.8107 22.4136C18.7049 22.4681 18.5877 22.4966 18.4687 22.4968Z" fill="#666666"/>
</g>
<defs>
<clipPath id="clip0_14126_3712">
<rect width="24" height="24" fill="white"/>
</clipPath>
</defs>
</svg>
