<svg width="24" height="25" viewBox="0 0 24 25" fill="none" xmlns="http://www.w3.org/2000/svg">
<path d="M12.2949 10.0106C11.6794 9.94984 11.0601 10.0808 10.5219 10.3855C9.98365 10.6903 9.55278 11.154 9.28825 11.7131C9.02373 12.2722 8.93848 12.8994 9.04418 13.5088C9.14989 14.1182 9.44137 14.6801 9.87873 15.1174C10.3161 15.5548 10.8779 15.8463 11.4874 15.952C12.0968 16.0577 12.724 15.9724 13.2831 15.7079C13.8422 15.4434 14.3058 15.0125 14.6106 14.4743C14.9154 13.936 15.0463 13.3168 14.9855 12.7013C14.9162 12.0112 14.6105 11.3664 14.1201 10.876C13.6297 10.3857 12.9849 10.0799 12.2949 10.0106V10.0106ZM19.5183 12.9961C19.5164 13.3222 19.4925 13.6478 19.4466 13.9706L21.5658 15.6328C21.6581 15.7093 21.7203 15.816 21.7413 15.934C21.7623 16.052 21.7409 16.1737 21.6807 16.2773L19.6758 19.7461C19.615 19.8488 19.5198 19.9266 19.4071 19.966C19.2944 20.0054 19.1715 20.0037 19.0599 19.9613L16.9552 19.1138C16.8391 19.0675 16.7134 19.0508 16.5893 19.0652C16.4652 19.0795 16.3466 19.1244 16.2441 19.1958C15.9229 19.417 15.5854 19.6135 15.2344 19.7836C15.1241 19.8372 15.0287 19.9172 14.9566 20.0164C14.8845 20.1157 14.8379 20.2312 14.821 20.3527L14.5055 22.5975C14.4848 22.7161 14.4236 22.8237 14.3322 22.9021C14.2409 22.9805 14.1252 23.0248 14.0049 23.0273H9.99521C9.87687 23.0253 9.76276 22.983 9.67167 22.9074C9.58059 22.8318 9.51796 22.7275 9.49412 22.6116L9.17912 20.37C9.16143 20.2472 9.11366 20.1306 9.04006 20.0307C8.96646 19.9307 8.86931 19.8505 8.75724 19.7972C8.40672 19.628 8.07033 19.431 7.75131 19.208C7.64916 19.1369 7.53094 19.0924 7.4073 19.0784C7.28365 19.0644 7.15847 19.0814 7.04303 19.1278L4.93881 19.9748C4.82729 20.0173 4.70438 20.0191 4.5917 19.9798C4.47903 19.9405 4.38383 19.8627 4.32287 19.7602L2.31802 16.2914C2.25775 16.1878 2.23621 16.0661 2.25724 15.9481C2.27827 15.8301 2.34051 15.7233 2.43287 15.6469L4.22396 14.2406C4.32209 14.1627 4.39921 14.0616 4.44832 13.9463C4.49744 13.8311 4.51699 13.7054 4.50521 13.5806C4.48834 13.3852 4.47802 13.1902 4.47802 12.9947C4.47802 12.7992 4.48787 12.607 4.50521 12.4158C4.51571 12.2918 4.49519 12.1672 4.44552 12.0531C4.39585 11.939 4.31858 11.8391 4.22068 11.7623L2.43052 10.3561C2.33966 10.2793 2.27874 10.1729 2.25843 10.0557C2.23811 9.93842 2.25971 9.81776 2.31943 9.71484L4.32428 6.24609C4.38516 6.14343 4.48033 6.06556 4.59301 6.0262C4.70569 5.98684 4.82865 5.98852 4.94021 6.03094L7.0449 6.87844C7.16096 6.92465 7.28668 6.94135 7.41078 6.92703C7.53489 6.91271 7.6535 6.86783 7.75599 6.79641C8.07721 6.57521 8.41474 6.37871 8.76568 6.20859C8.87601 6.15497 8.97145 6.075 9.04355 5.97576C9.11566 5.87651 9.16222 5.76104 9.17912 5.63953L9.49459 3.39469C9.51531 3.27613 9.57656 3.16845 9.66787 3.09005C9.75918 3.01165 9.87489 2.96739 9.99521 2.96484H14.0049C14.1232 2.96689 14.2374 3.00919 14.3284 3.08477C14.4195 3.16034 14.4821 3.26469 14.506 3.38063L14.821 5.62219C14.8387 5.74503 14.8865 5.8616 14.9601 5.96153C15.0337 6.06147 15.1308 6.14167 15.2429 6.195C15.5934 6.3642 15.9298 6.56124 16.2488 6.78422C16.351 6.85529 16.4692 6.89983 16.5928 6.91382C16.7165 6.92781 16.8416 6.91082 16.9571 6.86438L19.0613 6.01734C19.1728 5.97488 19.2957 5.97313 19.4084 6.0124C19.5211 6.05168 19.6163 6.12945 19.6772 6.23203L21.6821 9.70078C21.7424 9.80442 21.7639 9.92608 21.7429 10.0441C21.7218 10.1621 21.6596 10.2689 21.5672 10.3453L19.7762 11.7516C19.6776 11.8292 19.6 11.9303 19.5505 12.0455C19.501 12.1608 19.481 12.2866 19.4926 12.4116C19.508 12.6056 19.5183 12.8006 19.5183 12.9961Z" stroke="#666666" stroke-width="1.5" stroke-linecap="round" stroke-linejoin="round"/>
</svg>
