<svg width="24" height="22" viewBox="0 0 24 22" fill="none" xmlns="http://www.w3.org/2000/svg">
<path d="M18.4687 21.4968C18.3109 21.4974 18.1568 21.4482 18.0286 21.3562L12 16.9856L5.97139 21.3562C5.84259 21.4496 5.68742 21.4996 5.52832 21.4991C5.36921 21.4985 5.21441 21.4473 5.08629 21.353C4.95818 21.2586 4.86339 21.126 4.81563 20.9742C4.76787 20.8224 4.76961 20.6594 4.82061 20.5087L7.17186 13.5445L1.07811 9.36556C0.946113 9.27514 0.846491 9.14489 0.793797 8.99382C0.741103 8.84275 0.7381 8.67879 0.785225 8.5259C0.83235 8.373 0.927135 8.23918 1.05573 8.14399C1.18432 8.0488 1.33999 7.99723 1.49998 7.99681H9.0178L11.2865 1.01478C11.3354 0.864038 11.4308 0.732653 11.559 0.639469C11.6871 0.546286 11.8415 0.496094 12 0.496094C12.1585 0.496094 12.3128 0.546286 12.441 0.639469C12.5692 0.732653 12.6645 0.864038 12.7134 1.01478L14.9822 7.99915H22.5C22.6602 7.99907 22.8162 8.05029 22.9452 8.1453C23.0741 8.2403 23.1693 8.37411 23.2167 8.52712C23.2642 8.68014 23.2613 8.84431 23.2087 8.99561C23.1561 9.14691 23.0564 9.27737 22.9242 9.3679L16.8281 13.5445L19.178 20.5068C19.216 20.6195 19.2267 20.7397 19.2092 20.8574C19.1917 20.975 19.1464 21.0869 19.0771 21.1836C19.0078 21.2803 18.9165 21.3592 18.8107 21.4136C18.7049 21.4681 18.5877 21.4966 18.4687 21.4968Z" fill="#666666"/>
</svg>
