<svg width="20" height="20" viewBox="0 0 20 20" fill="none" xmlns="http://www.w3.org/2000/svg">
<path d="M19.7499 18.0625L13.9337 12.2453C14.871 10.9572 15.3752 9.40488 15.3737 7.81188C15.3737 3.64234 11.9813 0.25 7.81181 0.25C3.64228 0.25 0.249939 3.64234 0.249939 7.81188C0.249939 11.9814 3.64228 15.3738 7.81181 15.3738C9.40482 15.3753 10.9572 14.8711 12.2453 13.9338L18.0624 19.75L19.7499 18.0625ZM7.81181 12.9855C6.78844 12.9856 5.78803 12.6822 4.93708 12.1137C4.08614 11.5452 3.4229 10.7371 3.03122 9.79165C2.63955 8.8462 2.53705 7.80583 2.73668 6.80211C2.93631 5.7984 3.4291 4.87643 4.15273 4.15279C4.87636 3.42916 5.79834 2.93637 6.80205 2.73674C7.80576 2.53711 8.84614 2.63962 9.79159 3.03129C10.737 3.42296 11.5451 4.0862 12.1136 4.93714C12.6821 5.78809 12.9855 6.7885 12.9854 7.81188C12.9838 9.1835 12.4382 10.4985 11.4683 11.4684C10.4984 12.4383 9.18344 12.9839 7.81181 12.9855Z" fill="#666666"/>
</svg>
