<svg width="24" height="25" viewBox="0 0 24 25" fill="none" xmlns="http://www.w3.org/2000/svg">
<g clip-path="url(#clip0_14126_4342)">
<path d="M12 6.24609C13.4497 6.24609 14.625 5.07084 14.625 3.62109C14.625 2.17135 13.4497 0.996094 12 0.996094C10.5503 0.996094 9.375 2.17135 9.375 3.62109C9.375 5.07084 10.5503 6.24609 12 6.24609Z" fill="#666666"/>
<path d="M14.25 6.99609H9.75C8.95507 6.99844 8.19338 7.31527 7.63128 7.87737C7.06917 8.43947 6.75235 9.20117 6.75 9.99609V15.0361C6.75 15.5447 7.14516 15.9773 7.65328 15.9956C7.77921 16.0002 7.90476 15.9794 8.02246 15.9344C8.14015 15.8893 8.24755 15.8211 8.33826 15.7336C8.42896 15.6461 8.50111 15.5413 8.55037 15.4253C8.59964 15.3093 8.62502 15.1846 8.625 15.0586V10.3838C8.62381 10.287 8.65923 10.1934 8.72417 10.1217C8.78911 10.0499 8.87877 10.0054 8.97516 9.99703C9.02645 9.99363 9.0779 10.0008 9.1263 10.0181C9.17471 10.0354 9.21904 10.0625 9.25653 10.0977C9.29403 10.1328 9.3239 10.1754 9.34427 10.2225C9.36465 10.2697 9.37511 10.3206 9.375 10.372V23.918C9.375 24.2039 9.48859 24.4781 9.69078 24.6803C9.89296 24.8825 10.1672 24.9961 10.4531 24.9961C10.7391 24.9961 11.0133 24.8825 11.2155 24.6803C11.4177 24.4781 11.5313 24.2039 11.5313 23.918V17.2308C11.5296 17.1097 11.5737 16.9925 11.6548 16.9026C11.7359 16.8128 11.848 16.7568 11.9686 16.7461C12.0327 16.7418 12.0971 16.7507 12.1576 16.7723C12.2182 16.794 12.2736 16.8278 12.3205 16.8718C12.3675 16.9157 12.4048 16.9689 12.4303 17.0279C12.4558 17.0869 12.4689 17.1506 12.4688 17.2148V23.918C12.4688 24.2039 12.5823 24.4781 12.7845 24.6803C12.9867 24.8825 13.2609 24.9961 13.5469 24.9961C13.8328 24.9961 14.107 24.8825 14.3092 24.6803C14.5114 24.4781 14.625 24.2039 14.625 23.918V10.3838C14.6238 10.287 14.6592 10.1934 14.7242 10.1217C14.7891 10.0499 14.8788 10.0054 14.9752 9.99703C15.0265 9.99363 15.0779 10.0008 15.1263 10.0181C15.1747 10.0354 15.219 10.0625 15.2565 10.0977C15.294 10.1328 15.3239 10.1754 15.3443 10.2225C15.3647 10.2697 15.3751 10.3206 15.375 10.372V15.037C15.375 15.5456 15.7702 15.9783 16.2783 15.9966C16.4043 16.0012 16.5299 15.9803 16.6477 15.9352C16.7654 15.8901 16.8729 15.8218 16.9636 15.7342C17.0543 15.6466 17.1264 15.5417 17.1756 15.4256C17.2249 15.3095 17.2501 15.1847 17.25 15.0586V9.99609C17.2477 9.20117 16.9308 8.43947 16.3687 7.87737C15.8066 7.31527 15.0449 6.99844 14.25 6.99609Z" fill="#666666"/>
</g>
<defs>
<clipPath id="clip0_14126_4342">
<rect width="24" height="24" fill="white" transform="translate(0 0.996094)"/>
</clipPath>
</defs>
</svg>
